<svg xmlns="http://www.w3.org/2000/svg" width="60" height="60" viewBox="0 0 60 60"><g><g><path fill="#f1cdb3" d="M60 30c0 8.013-3.12 15.547-8.787 21.213C45.547 56.88 38.013 60 30 60c-8.013 0-15.547-3.12-21.213-8.787C3.12 45.547 0 38.013 0 30c0-8.013 3.12-15.547 8.787-21.213C14.453 3.12 21.987 0 30 0c8.013 0 15.547 3.12 21.213 8.787C56.88 14.453 60 21.987 60 30zM28.115 57.313a19.356 19.356 0 0 0-.2-2.175c-.788-5.303-3.638-10.64-8.026-15.027-4.387-4.388-9.724-7.238-15.027-8.025-.74-.11-1.472-.178-2.188-.203.445 6.608 3.23 12.759 7.957 17.486a27.276 27.276 0 0 0 17.484 7.944zm5.216-.137a24.8 24.8 0 0 0-.256-2.805c-.951-6.402-4.324-12.777-9.496-17.95-5.173-5.173-11.548-8.545-17.95-9.496-.947-.14-1.891-.226-2.82-.257a27.81 27.81 0 0 0-.19 2.605c.879.025 1.756.102 2.626.232 5.853.87 11.709 3.98 16.489 8.76 4.78 4.781 7.891 10.637 8.76 16.49.13.865.207 1.738.232 2.613a27.53 27.53 0 0 0 2.605-.192zm23.276-20.63l-.011.02a27.317 27.317 0 0 1-3.23-.289c-6.952-1.032-13.846-4.666-19.411-10.232-5.566-5.565-9.2-12.46-10.233-19.41a27.37 27.37 0 0 1-.287-3.221 27.225 27.225 0 0 0-12.803 7.217c-3.749 3.749-6.276 8.393-7.385 13.45l.008-.006c.923.043 1.843.133 2.757.27 6.952 1.032 13.845 4.666 19.411 10.232 5.566 5.565 9.2 12.459 10.233 19.41.135.911.225 1.828.269 2.748a27.23 27.23 0 0 0 13.444-7.366c3.593-3.594 6.063-8.01 7.238-12.823zm.752-5.19h-.05c-1.036 0-2.099-.08-3.176-.24a1.304 1.304 0 1 1 .383-2.58c.97.144 1.92.214 2.846.212-.305-6.846-3.116-13.24-7.993-18.117-5.022-5.022-11.526-7.682-18.117-7.98-.002.92.069 1.868.212 2.833.788 5.304 3.638 10.64 8.025 15.027a1.305 1.305 0 0 1-1.845 1.845c-4.78-4.78-7.891-10.636-8.76-16.488a21.62 21.62 0 0 1-.239-3.213c-.874.043-1.745.128-2.611.253.012 1.096.101 2.216.269 3.343.95 6.402 4.324 12.777 9.496 17.95 5.173 5.173 11.548 8.545 17.95 9.496 1.132.168 2.257.258 3.358.269.125-.866.209-1.736.252-2.61zm-10.285-5.199c.242.243.382.58.382.922a1.314 1.314 0 0 1-.382.922c-.243.243-.58.383-.922.383a1.309 1.309 0 0 1-1.304-1.304 1.309 1.309 0 0 1 1.304-1.305c.346 0 .677.138.922.382z"/></g></g></svg>