<svg xmlns="http://www.w3.org/2000/svg" width="60" height="57" viewBox="0 0 60 57"><g><g><path fill="#f1cdb3" d="M59.985 37.855c.01.067.015.134.015.201 0 5.649-3.765 10.88-10.328 14.352-5.374 2.842-12.36 4.408-19.672 4.408-7.312 0-14.298-1.566-19.672-4.408C3.765 48.936 0 43.705 0 38.056c0-.067.005-.134.015-.2l2.86-19.212c.046-5.578 3.432-10.751 9.309-14.206C17.05 1.576 23.379 0 30 0c6.621 0 12.948 1.576 17.816 4.438 5.877 3.455 9.263 8.628 9.31 14.206zM5.601 18.76c0 4.63 2.903 8.994 7.966 11.97C18.02 33.349 23.857 34.79 30 34.79c6.142 0 11.978-1.442 16.433-4.061 5.063-2.976 7.966-7.34 7.966-11.97 0-4.63-2.903-8.994-7.966-11.97C41.978 4.171 36.143 2.729 30 2.729c-6.142 0-11.979 1.442-16.433 4.061C8.504 9.766 5.6 14.13 5.6 18.76zm51.67 19.393l-1.879-12.619c-1.564 2.927-4.145 5.53-7.576 7.548-4.868 2.861-11.195 4.437-17.816 4.437-6.621 0-12.948-1.576-17.816-4.437-3.431-2.018-6.012-4.62-7.576-7.548l-1.879 12.62c.046 4.568 3.275 8.88 8.875 11.842 4.988 2.638 11.521 4.091 18.396 4.091s13.408-1.453 18.396-4.091c5.6-2.963 8.83-7.274 8.875-11.843zM9.46 23.056c-.751-1.376-1.132-2.821-1.132-4.296 0-3.692 2.352-7.108 6.621-9.618C18.992 6.766 24.337 5.458 30 5.458c5.664 0 11.008 1.308 15.05 3.684 4.27 2.51 6.62 5.926 6.62 9.618 0 1.474-.38 2.92-1.13 4.297-2.932 5.386-11.187 9.005-20.54 9.005s-17.608-3.62-20.54-9.006zm38.284-.655C44.97 18.289 37.844 15.473 30 15.473c-7.843 0-14.97 2.816-17.744 6.928 2.772 4.114 9.899 6.932 17.744 6.932 7.846 0 14.973-2.818 17.745-6.932zm-36.64-2.925c3.762-4.106 10.93-6.731 18.895-6.731 7.966 0 15.133 2.625 18.896 6.731.03-.238.046-.477.046-.716 0-2.686-1.873-5.266-5.275-7.265C40.038 9.36 35.185 8.187 30 8.187c-5.185 0-10.038 1.174-13.667 3.307-3.402 2-5.275 4.58-5.275 7.266 0 .24.016.479.046.716zM30.536 39.88c.17.073.323.179.45.312.889.931 3.788 4.144 3.788 6.4A4.78 4.78 0 0 1 30 51.367a4.78 4.78 0 0 1-4.775-4.775c0-2.255 2.9-5.468 3.788-6.4a1.365 1.365 0 0 1 1.524-.312zm1.51 6.712c0-.606-.953-2.07-2.047-3.398-1.094 1.328-2.046 2.792-2.046 3.398 0 1.128.918 2.046 2.046 2.046a2.049 2.049 0 0 0 2.046-2.046zm-8.163-24.694a1.364 1.364 0 1 1 0 2.728h-.42a1.364 1.364 0 1 1 0-2.728zm16.19 0a1.364 1.364 0 1 1 0 2.728h-9.732a1.364 1.364 0 1 1 0-2.728z"/></g></g></svg>