<svg xmlns="http://www.w3.org/2000/svg" width="60" height="55" viewBox="0 0 60 55"><g><g><path fill="#f1cdb3" d="M60 37.53v9.769c0 1.458-.987 3.531-5.69 5.131-3.274 1.115-7.605 1.729-12.194 1.729-4.59 0-8.92-.614-12.195-1.729-2.776-.944-4.257-2.054-5.004-3.104a14.31 14.31 0 0 1-3.598 2.946 14.232 14.232 0 0 1-7.087 1.887C6.385 54.159 0 47.774 0 39.926V14.233C0 6.385 6.385 0 14.232 0c7.848 0 14.233 6.385 14.233 14.233v18.726c.477-.207.963-.394 1.456-.56 3.07-1.045 7.068-1.65 11.338-1.722.284-.004.57-.007.857-.007 4.589 0 8.92.614 12.195 1.729 4.702 1.6 5.689 3.673 5.689 5.13zm-33.425.002c.002.376.312.89 1.065 1.444l25.079-4.622c-2.929-.866-6.65-1.34-10.603-1.34-4.34 0-8.402.57-11.44 1.603-1.198.408-2.089.84-2.73 1.256l-.013.01a5.35 5.35 0 0 0-.706.54l-.034.032c-.029.027-.056.055-.083.082a3.24 3.24 0 0 0-.115.122l-.004.005c-.235.267-.362.512-.402.724l-.002.012a.834.834 0 0 0-.012.13zm-.454-9.28H7.031v6.327a1.172 1.172 0 0 1-2.343 0v-6.328H2.344v11.675c0 6.556 5.333 11.889 11.889 11.889 4.082 0 7.796-2.033 9.998-5.454V37.53c0-.053.002-.108.005-.162l.002-.03a3.304 3.304 0 0 1 .221-1c.255-.652.759-1.356 1.662-2.048zm0-14.02c0-6.555-5.333-11.888-11.888-11.888-6.556 0-11.89 5.333-11.89 11.889v11.675h2.345V14.231c0-5.263 4.281-9.545 9.545-9.545 5.263 0 9.545 4.282 9.545 9.545a1.172 1.172 0 1 1-2.344 0c0-3.97-3.23-7.2-7.202-7.2-3.97 0-7.2 3.23-7.2 7.2v11.675h19.09zm31.535 26.861c-.82.546-1.909 1.08-3.345 1.568-3.275 1.115-7.606 1.729-12.195 1.729-4.59 0-8.92-.614-12.195-1.729-1.437-.489-2.525-1.022-3.346-1.568V47.3c0 .7 1.074 1.883 4.1 2.913 3.04 1.034 7.102 1.603 11.44 1.603 4.34 0 8.402-.57 11.44-1.603 3.027-1.03 4.101-2.213 4.101-2.913zm0-3.563c0-.387-.328-.92-1.131-1.494l-25.139 4.633c2.947.89 6.72 1.377 10.73 1.377 4.339 0 8.401-.57 11.44-1.604 3.026-1.03 4.1-2.212 4.1-2.912zm-50.625 1.7a1.164 1.164 0 0 1-.724 1.083 1.155 1.155 0 0 1-.676.067 1.185 1.185 0 0 1-.745-.498 1.16 1.16 0 0 1-.175-.422 1.157 1.157 0 0 1 .175-.88 1.12 1.12 0 0 1 .323-.323 1.184 1.184 0 0 1 .422-.175 1.153 1.153 0 0 1 .676.067 1.153 1.153 0 0 1 .38.253c.219.218.344.52.344.829z"/></g></g></svg>