<svg xmlns="http://www.w3.org/2000/svg" width="60" height="60" viewBox="0 0 60 60"><g><g><path fill="#f1cdb3" d="M59.656 15.899c.458.457.458 1.2 0 1.657l-4.142 4.142a1.168 1.168 0 0 1-1.658 0l-4.92-4.92-4.66 4.658 7.172 7.171a1.172 1.172 0 0 1 0 1.658l-4.759 4.758a1.168 1.168 0 0 1-1.657 0l-1.511-1.511-19.423 19.423a4.548 4.548 0 0 1-3.237 1.34 4.548 4.548 0 0 1-3.237-1.34l-1.492-1.492-2.734 2.735a1.172 1.172 0 0 1-1.657 0l-2.13-2.131L2 59.657a1.168 1.168 0 0 1-1.658 0 1.172 1.172 0 0 1 0-1.658l7.61-7.61-2.13-2.13a1.172 1.172 0 0 1 0-1.657l2.733-2.735-1.49-1.49a4.583 4.583 0 0 1 0-6.475l19.422-19.424-1.511-1.51a1.172 1.172 0 0 1 0-1.658l4.758-4.758a1.172 1.172 0 0 1 1.657 0l7.172 7.17 4.658-4.658-4.92-4.921a1.172 1.172 0 0 1 0-1.658L42.443.343a1.172 1.172 0 0 1 1.657 0zm-36.87 7.597l10.089 10.088 5.359-5.359-10.089-10.089-1.752 1.753 5.422 5.422a1.172 1.172 0 0 1-1.657 1.657l-5.422-5.422zm-8.31 26.29l-4.262-4.261-1.906 1.905 4.262 4.262zm20.37-10.915l-1.972-1.972-7.62 7.621a1.169 1.169 0 0 1-1.658 0 1.172 1.172 0 0 1 0-1.657l7.62-7.621-10.088-10.089-1.908 1.908 2.886 2.885a1.172 1.172 0 0 1-1.657 1.658l-2.886-2.886-1.929 1.929 5.422 5.421a1.172 1.172 0 1 1-1.657 1.658l-5.422-5.422-1.928 1.929 2.885 2.885a1.172 1.172 0 0 1-1.657 1.658l-2.885-2.886-1.67 1.67a2.237 2.237 0 0 0 0 3.159l10.56 10.558c.87.871 2.287.871 3.158 0zm7.017-7.017l-1.971-1.972-5.36 5.36 1.972 1.972zm-11.3-20.816l-3.1 3.1L45.86 32.538l3.1-3.101zm16.715 4.082L44.88 12.72l-4.66 4.66 2.4 2.398zm9.893 1.607L43.273 2.829l-2.486 2.485 13.899 13.898zM22.339 46.949a1.17 1.17 0 0 1-.198.65 1.157 1.157 0 0 1-.974.521 1.157 1.157 0 0 1-1.082-.723 1.151 1.151 0 0 1-.066-.676 1.154 1.154 0 0 1 .7-.853 1.18 1.18 0 0 1 .677-.067 1.18 1.18 0 0 1 .853.7 1.15 1.15 0 0 1 .09.448z"/></g></g></svg>