<svg xmlns="http://www.w3.org/2000/svg" width="60" height="60" viewBox="0 0 60 60"><g><g><path fill="#f1cdb3" d="M55.008 12.711c1.48 0 4.925.718 4.925 7.369v30.477c0 2.54-1.706 4.246-4.246 4.246H52.37C51.818 57.756 49.222 60 46.11 60c-3.112 0-5.708-2.244-6.26-5.198H21.427C20.874 57.756 18.278 60 15.166 60c-3.111 0-5.707-2.244-6.259-5.198H3.683A3.707 3.707 0 0 1-.02 51.099V45a5.7 5.7 0 0 1 4.359-5.552c.784-.191 1.24-.377 1.483-.498.062-.03.11-.058.15-.081l4.26-12.907.027-.073a4.288 4.288 0 0 1 3.99-2.688h7.387v-5.565a4.93 4.93 0 0 1 4.925-4.925h8.247v-.202a6.596 6.596 0 0 1 6.589-6.588 6.596 6.596 0 0 1 6.588 6.588v.202zm-17.856 0h8.49v-.202a4.25 4.25 0 0 0-4.245-4.244 4.25 4.25 0 0 0-4.245 4.244zM8.454 38.828h13.181V25.545H14.25a1.952 1.952 0 0 0-1.804 1.193zM19.192 53.63c0-.037-.002-.072-.003-.108 0-.033 0-.067-.002-.1l-.008-.094c-.002-.037-.004-.074-.008-.11l-.008-.063c-.005-.046-.01-.092-.017-.138l-.002-.01a3.972 3.972 0 0 0-.034-.188l-.002-.007a4.032 4.032 0 0 0-3.941-3.208 4.03 4.03 0 0 0-4.019 3.799l-.002.02c-.002.041-.002.083-.003.125l-.002.082a4.03 4.03 0 0 0 4.026 4.025 4.03 4.03 0 0 0 4.025-4.025zm30.943 0a4.031 4.031 0 0 0-4.025-4.026 4.032 4.032 0 0 0-3.941 3.205l-.003.01c-.024.119-.042.24-.056.362l-.005.038-.006.089-.01.115v.05a4.03 4.03 0 0 0 4.022 4.182 4.03 4.03 0 0 0 4.024-4.025zm5.552-1.172c.71 0 1.902-.247 1.902-1.902V20.08c0-1.877-.335-5.025-2.581-5.025H26.56a2.584 2.584 0 0 0-2.582 2.581v21.19h25.187a1.172 1.172 0 0 1 0 2.345H6.605c-.469.205-1.043.391-1.71.554A3.362 3.362 0 0 0 2.324 45V51.1c0 .75.61 1.36 1.359 1.36h5.222l.013-.058.026-.127a5.998 5.998 0 0 1 .118-.458l.037-.121c.018-.056.037-.111.057-.167.013-.038.025-.075.04-.113.022-.061.047-.121.071-.182l.037-.091c.038-.09.078-.177.12-.264.01-.023.023-.045.034-.068.032-.065.064-.128.098-.191l.057-.1c.029-.052.057-.103.088-.154l.065-.106a6.82 6.82 0 0 1 .334-.482l.102-.13.079-.097c.037-.044.075-.088.113-.13.026-.03.051-.06.078-.088.045-.05.091-.098.138-.146.02-.02.04-.043.062-.063.067-.068.136-.133.206-.197l.07-.06c.049-.045.098-.088.149-.13.03-.025.06-.05.09-.073.046-.037.09-.073.137-.108l.1-.073a6.738 6.738 0 0 1 .488-.323l.148-.086.106-.059.164-.083.097-.05c.07-.033.142-.065.213-.096l.054-.024c.09-.038.18-.073.272-.107l.088-.03c.064-.023.128-.046.192-.066l.11-.033.176-.05.12-.03a5.984 5.984 0 0 1 .472-.097l.123-.02.184-.023c.04-.004.079-.01.119-.013.068-.007.137-.011.205-.016.034-.002.067-.005.101-.006a6.515 6.515 0 0 1 .62 0c.034.001.067.004.1.006l.207.016.118.013.185.024.122.02a5.957 5.957 0 0 1 .769.176l.11.033c.064.021.13.043.194.066l.085.03c.092.034.183.07.273.108l.047.02c.074.033.148.066.22.1l.094.047.167.086.103.057a6.512 6.512 0 0 1 .641.412c.032.023.065.046.096.07l.142.112.086.069c.053.045.106.09.158.137l.06.053c.071.065.14.13.209.199.018.017.035.036.052.054.05.05.1.102.148.155l.072.082c.04.045.08.09.119.137l.075.092a6.032 6.032 0 0 1 .44.62 5.988 5.988 0 0 1 .155.261 6.258 6.258 0 0 1 .158.3 6.369 6.369 0 0 1 .147.319c.013.026.023.053.034.08.026.064.052.128.076.193l.037.105c.021.058.04.117.06.176l.035.114c.046.154.086.31.12.466l.025.12.013.06h18.42c.004-.019.01-.038.013-.058a5.707 5.707 0 0 1 .066-.294c.024-.098.05-.195.079-.291.012-.04.023-.08.036-.119.018-.057.038-.114.058-.171l.038-.108a6.19 6.19 0 0 1 .076-.191 6.332 6.332 0 0 1 .154-.348c.008-.02.019-.039.028-.058.034-.068.068-.136.104-.203l.053-.094c.03-.053.06-.107.092-.16l.063-.1a6.009 6.009 0 0 1 .44-.62l.075-.092.119-.137.072-.081a6.51 6.51 0 0 1 .15-.157l.05-.052c.068-.068.138-.135.209-.2l.059-.051c.052-.047.105-.093.16-.139.027-.023.056-.045.085-.068.047-.038.094-.076.142-.112l.096-.07a5.988 5.988 0 0 1 .642-.412c.033-.02.067-.039.102-.057.055-.03.112-.058.168-.087l.092-.046c.074-.035.148-.068.224-.1l.044-.02c.09-.039.181-.075.273-.109l.084-.029a6.19 6.19 0 0 1 .196-.066l.108-.033a6.157 6.157 0 0 1 1.077-.22c.04-.004.079-.01.118-.013.069-.007.137-.011.206-.016l.1-.007a6.504 6.504 0 0 1 .621 0l.1.007c.07.004.138.01.207.016l.118.013.185.024.122.019a6.652 6.652 0 0 1 .475.097l.116.03.18.05c.035.011.071.021.106.033.067.02.134.044.2.067l.08.028c.093.034.184.07.275.109l.036.016c.078.033.155.068.231.105l.088.043.174.09.097.054a6.268 6.268 0 0 1 .649.416l.09.067.15.117.078.063.172.149.047.041c.072.066.143.133.212.202l.035.037c.056.057.111.114.165.173l.064.072c.043.048.085.097.127.147l.069.085a6.54 6.54 0 0 1 .448.63 6.252 6.252 0 0 1 .156.264l.046.082c.04.075.08.15.117.227l.017.033c.043.09.083.18.122.27l.027.066c.028.069.056.138.082.208l.034.098c.022.06.043.121.062.182l.034.11a6.4 6.4 0 0 1 .145.588c.004.02.01.04.013.062zm-7.131-24.707a5.556 5.556 0 0 1 1.24 3.49c0 3.06-2.49 5.55-5.551 5.55a5.55 5.55 0 0 1-2.848-.787 5.551 5.551 0 0 1-2.849.788c-3.06 0-5.55-2.49-5.55-5.55 0-1.297.457-2.522 1.24-3.491a3.237 3.237 0 0 1-1.885-2.937 3.238 3.238 0 0 1 2.52-3.153 3.529 3.529 0 0 1 1.006-2.812 3.672 3.672 0 0 1 2.608-1.094c1.19 0 2.25.578 2.911 1.468a3.623 3.623 0 0 1 2.909-1.468c.983 0 1.94.404 2.625 1.108a3.496 3.496 0 0 1 .986 2.797 3.238 3.238 0 0 1 2.523 3.154 3.236 3.236 0 0 1-1.885 2.937zm-5.533-6.363a1.277 1.277 0 0 0 .667 1.132l.063.03c.17.077.354.117.54.117.696-.008 1.278-.599 1.299-1.317a1.172 1.172 0 0 0-.34-.853 1.324 1.324 0 0 0-.945-.398c-.705 0-1.282.578-1.284 1.289zm-5.821-.028a1.34 1.34 0 0 0 1.304 1.307c.165.002.329-.03.482-.092.038-.018.075-.037.113-.054a1.29 1.29 0 0 0 .67-1.137 1.287 1.287 0 0 0-1.79-1.185c-.161.068-.306.166-.428.291a1.203 1.203 0 0 0-.351.87zm-1.616 4.343c.319 0 .598-.17.755-.423a5.4 5.4 0 0 1 .085-.179.89.89 0 1 0-1.73-.287c0 .49.4.889.89.889zm11.866 5.539c0-1.34-.845-2.551-2.103-3.012a1.171 1.171 0 0 1-.762-.982 3.21 3.21 0 0 0-.242-.935c-.042-.08-.08-.16-.116-.243a3.193 3.193 0 0 0-2.832-1.697 3.217 3.217 0 0 0-1.444.34 3.193 3.193 0 0 0-1.389 1.357 3.208 3.208 0 0 1-.116.243 3.217 3.217 0 0 0-.241.935 1.172 1.172 0 0 1-.763.982 3.219 3.219 0 0 0-2.102 3.012 3.205 3.205 0 1 0 5.292 2.434 1.17 1.17 0 0 1 1.526 0 3.205 3.205 0 0 0 5.292-2.434zm.645-6.428a.89.89 0 0 0-1.778 0c0 .098.017.195.048.287.03.06.058.119.085.179a.889.889 0 0 0 1.645-.466zm6.95 15.19a1.172 1.172 0 0 1-.344.828 1.151 1.151 0 0 1-.38.253 1.15 1.15 0 0 1-1.098-.107 1.197 1.197 0 0 1-.324-.324 1.197 1.197 0 0 1-.198-.65 1.157 1.157 0 0 1 .09-.448 1.074 1.074 0 0 1 .253-.381 1.196 1.196 0 0 1 .6-.32c.15-.03.306-.03.457 0a1.194 1.194 0 0 1 .6.32 1.12 1.12 0 0 1 .253.38 1.172 1.172 0 0 1 .09.448zM42.568 1.171v1.962a1.172 1.172 0 0 1-2.344 0V1.172a1.172 1.172 0 0 1 2.343 0zm-6.11 3.385A1.172 1.172 0 1 1 35.013 6.4l-1.635-1.284a1.172 1.172 0 0 1 1.447-1.844zm12.958.559L47.78 6.4a1.167 1.167 0 0 1-1.236.133 1.172 1.172 0 0 1-.211-1.976l1.635-1.285a1.172 1.172 0 1 1 1.448 1.844z"/></g></g></svg>