<svg xmlns="http://www.w3.org/2000/svg" width="48" height="60" viewBox="0 0 48 60"><g><g><path fill="#f1cdb3" d="M46.896 25.498a16.919 16.919 0 0 1 1.031 5.824v23.755A4.929 4.929 0 0 1 43.004 60H4.994A4.93 4.93 0 0 1 .07 55.076V31.322a16.918 16.918 0 0 1 1.03-5.824l5.756-15.75v-8.32C6.856.64 7.496 0 8.284 0h31.429c.789 0 1.428.64 1.428 1.429v8.318zM9.713 8.57h28.571V2.857H9.713zm35.357 22.75c0-1.652-.29-3.291-.857-4.843l-5.5-15.05H9.284l-5.499 15.05a14.072 14.072 0 0 0-.857 4.844v23.754c0 1.14.927 2.067 2.067 2.067h38.01c1.139 0 2.066-.927 2.066-2.067V52.99H24.906a1.429 1.429 0 0 1 0-2.857H45.07zm-11.66 8.645c-.228 2.998-2.661 5.426-5.66 5.649a6.132 6.132 0 0 1-3.326-.689 1.852 1.852 0 0 0-1.75 0 6.141 6.141 0 0 1-3.326.689c-2.999-.223-5.432-2.651-5.66-5.65a6.176 6.176 0 0 1 3.795-6.16 6.153 6.153 0 0 1 6.066-5.173c3.057 0 5.6 2.245 6.067 5.173a6.176 6.176 0 0 1 3.794 6.161zm-5.443-3.691a1.428 1.428 0 0 1-1.134-1.428l.002-.077a3.288 3.288 0 0 0-3.286-3.28 3.29 3.29 0 0 0-3.286 3.285l.003.072a1.429 1.429 0 0 1-1.134 1.428 3.3 3.3 0 0 0-2.594 3.475 3.294 3.294 0 0 0 3.021 3.015 3.283 3.283 0 0 0 1.782-.366 4.73 4.73 0 0 1 4.416 0 3.281 3.281 0 0 0 1.782.366 3.294 3.294 0 0 0 3.022-3.016 3.3 3.3 0 0 0-2.594-3.474zm-9.06-15.143a4.648 4.648 0 0 1 4.642-4.643 4.648 4.648 0 0 1 4.643 4.643 4.648 4.648 0 0 1-4.643 4.643 4.648 4.648 0 0 1-4.643-4.643zm2.856 0c0 .985.801 1.786 1.786 1.786s1.786-.801 1.786-1.786-.801-1.786-1.786-1.786-1.786.802-1.786 1.786zM13.55 31.3a4.648 4.648 0 0 1-4.643-4.643 4.648 4.648 0 0 1 4.643-4.643 4.648 4.648 0 0 1 4.643 4.643 4.648 4.648 0 0 1-4.643 4.643zm1.786-4.643c0-.985-.801-1.786-1.786-1.786s-1.786.801-1.786 1.786.801 1.786 1.786 1.786 1.786-.801 1.786-1.786zm22.857 0a4.648 4.648 0 0 1-4.643 4.643 4.648 4.648 0 0 1-4.643-4.643 4.648 4.648 0 0 1 4.643-4.643 4.648 4.648 0 0 1 4.643 4.643zm-2.857 0c0-.985-.801-1.786-1.786-1.786-.984 0-1.786.801-1.786 1.786s.801 1.786 1.786 1.786 1.786-.801 1.786-1.786zM18.692 50.132a1.428 1.428 0 1 1 0 2.857h-.347a1.429 1.429 0 0 1 0-2.857z"/></g></g></svg>