<svg xmlns="http://www.w3.org/2000/svg" width="57" height="60" viewBox="0 0 57 60"><g><g><path fill="#f1cdb3" d="M55.949 19.966c.522.382.635 1.116.253 1.638l-3.525 4.817a1.17 1.17 0 0 1-1.638.253l-1.002-.733v32.887c0 .647-.525 1.172-1.172 1.172h-41.1a1.172 1.172 0 0 1-1.172-1.172V25.896l-1.064.778a1.171 1.171 0 0 1-1.637-.253L.366 21.604a1.172 1.172 0 0 1 .254-1.638L27.592.226a1.172 1.172 0 0 1 1.384 0zm-8.256 4.26L28.284 10.021l-17.407 12.74H36.38a1.172 1.172 0 0 1 0 2.344H8.937v32.551h38.756V55.43H19.967a1.172 1.172 0 0 1 0-2.343h27.726zm5.926-3.06L28.284 2.623 2.95 21.165l2.14 2.926L27.593 7.623a1.17 1.17 0 0 1 1.384 0l22.501 16.468zm-11.846 2.767a1.148 1.148 0 0 1-.198.65 1.114 1.114 0 0 1-.323.324 1.163 1.163 0 0 1-.422.175 1.156 1.156 0 0 1-.879-.175 1.119 1.119 0 0 1-.323-.323 1.183 1.183 0 0 1-.198-.651 1.156 1.156 0 0 1 .09-.449 1.19 1.19 0 0 1 .253-.38 1.18 1.18 0 0 1 .829-.343 1.18 1.18 0 0 1 .974.522 1.19 1.19 0 0 1 .197.65zM16.918 54.257a1.181 1.181 0 0 1-.521.974 1.183 1.183 0 0 1-.88.175 1.186 1.186 0 0 1-.853-.7 1.158 1.158 0 0 1-.067-.678 1.182 1.182 0 0 1 .499-.745 1.186 1.186 0 0 1 .42-.175 1.159 1.159 0 0 1 .88.175 1.2 1.2 0 0 1 .324.323 1.193 1.193 0 0 1 .198.65zm25.917-23.48a40.529 40.529 0 0 1-.96 6.868 12.824 12.824 0 0 1 .753 2.882c.364 2.622-.417 5.193-2.2 7.242-1.946 2.235-4.83 3.516-7.912 3.516h-8.463c-5.623 0-10.198-4.268-10.198-9.514 0-.416.03-.831.086-1.243.138-.987.39-1.955.754-2.883a40.333 40.333 0 0 1-.961-6.87 3.666 3.666 0 0 1 1.348-3.058A3.668 3.668 0 0 1 18.376 27c2.17.556 4.29 1.29 6.338 2.197a15.405 15.405 0 0 1 3.57-.416c1.202 0 2.4.139 3.57.416A40.487 40.487 0 0 1 38.195 27a3.72 3.72 0 0 1 .912-.124 3.726 3.726 0 0 1 2.637 1.072 3.666 3.666 0 0 1 1.092 2.83zm-2.34-.13c0-.025.002-.049.001-.073a1.34 1.34 0 0 0-.401-.96 1.364 1.364 0 0 0-.951-.394h-.015a1.373 1.373 0 0 0-.306.037 38.152 38.152 0 0 0-6.375 2.242 1.175 1.175 0 0 1-.788.066 13.097 13.097 0 0 0-3.376-.44 13.005 13.005 0 0 0-3.377.44c-.263.07-.541.046-.789-.066a38.101 38.101 0 0 0-6.352-2.236l-.023-.006a1.345 1.345 0 0 0-1.175.272 1.345 1.345 0 0 0-.495 1.122 37.937 37.937 0 0 0 .987 6.819c.058.244.036.5-.062.73a10.432 10.432 0 0 0-.736 2.65 6.768 6.768 0 0 0-.064.921c0 3.954 3.523 7.17 7.854 7.17h8.464c2.404 0 4.643-.988 6.143-2.711 1.331-1.53 1.916-3.44 1.646-5.38a10.477 10.477 0 0 0-.736-2.65 1.173 1.173 0 0 1-.06-.73 38.15 38.15 0 0 0 .985-6.819zm-8.841 14.091c0 .647-.525 1.172-1.172 1.172a3.354 3.354 0 0 1-2.173-.796 3.355 3.355 0 0 1-2.223.839 1.172 1.172 0 0 1 0-2.344c.566 0 1.026-.46 1.026-1.026v-.043a1.172 1.172 0 0 1 2.344 0c0 .566.46 1.026 1.026 1.026.647 0 1.172.525 1.172 1.172zm-7.466-6.572a1.172 1.172 0 1 1-.976 2.131l-1.253-.574-1.253.574a1.172 1.172 0 1 1-.976-2.13l1.74-.798a1.17 1.17 0 0 1 .977 0zm12.65 0a1.172 1.172 0 1 1-.976 2.13l-1.253-.573-1.252.574a1.171 1.171 0 1 1-.976-2.13l1.74-.798a1.17 1.17 0 0 1 .976 0z"/></g></g></svg>