<svg xmlns="http://www.w3.org/2000/svg" width="60" height="53" viewBox="0 0 60 53"><g><g><path fill="#f1cdb3" d="M60 10.983v13.116c0 1.697-.91 3.289-2.703 4.732-1.559 1.254-3.757 2.37-6.535 3.315-5.285 1.798-12.203 2.829-19.59 2.927v4.703h4.041a5.121 5.121 0 0 1 5.024-4.16 5.119 5.119 0 0 1 5.113 5.112 5.097 5.097 0 0 1-1.204 3.297c.77.91 1.204 2.07 1.204 3.296a5.119 5.119 0 0 1-5.113 5.113 5.121 5.121 0 0 1-5.024-4.16H24.787a5.122 5.122 0 0 1-5.024 4.16 5.119 5.119 0 0 1-5.113-5.113 5.097 5.097 0 0 1 1.204-3.296 5.097 5.097 0 0 1-1.204-3.297 5.119 5.119 0 0 1 5.113-5.112 5.121 5.121 0 0 1 5.024 4.16h4.041v-4.703c-7.387-.098-14.306-1.129-19.59-2.927-2.778-.945-4.976-2.06-6.535-3.315C.909 27.388 0 25.796 0 24.099V10.983c0-1.697.91-3.289 2.703-4.732 1.559-1.254 3.757-2.37 6.535-3.315C14.8 1.043 22.174 0 30 0c7.825 0 15.198 1.043 20.762 2.936 2.777.945 4.976 2.06 6.535 3.315C59.09 7.694 60 9.286 60 10.983zM23.698 42.119a1.17 1.17 0 0 1-1.17-1.236 2.772 2.772 0 0 0-2.765-2.923 2.772 2.772 0 0 0-2.77 2.769c0 .935.469 1.801 1.254 2.316a1.172 1.172 0 0 1 0 1.96 2.765 2.765 0 0 0-1.254 2.316 2.772 2.772 0 0 0 2.77 2.77 2.772 2.772 0 0 0 2.764-2.924 1.172 1.172 0 0 1 1.17-1.236h12.605a1.172 1.172 0 0 1 1.17 1.236 2.772 2.772 0 0 0 2.765 2.923 2.772 2.772 0 0 0 2.77-2.768c0-.936-.47-1.802-1.254-2.317a1.171 1.171 0 0 1 0-1.96 2.764 2.764 0 0 0 1.253-2.316 2.772 2.772 0 0 0-2.77-2.77 2.772 2.772 0 0 0-2.764 2.924 1.172 1.172 0 0 1-1.17 1.236zm9.124-12.203A2.826 2.826 0 0 0 30 27.093a2.826 2.826 0 0 0-2.823 2.823A2.826 2.826 0 0 0 30 32.738a2.826 2.826 0 0 0 2.822-2.822zm24.834-14.502l-.016.013a11.462 11.462 0 0 1-.822.652l-.002.002c-.088.064-.177.127-.268.19l-.04.028c-.086.059-.172.117-.26.175l-.054.035c-.09.058-.18.116-.272.173l-.04.025c-1.385.856-3.098 1.635-5.12 2.323-5.564 1.893-12.937 2.936-20.762 2.936-7.826 0-15.199-1.043-20.762-2.936-2.022-.688-3.736-1.467-5.12-2.323l-.04-.025a15.964 15.964 0 0 1-.272-.173l-.054-.035a14.813 14.813 0 0 1-.26-.175l-.04-.028c-.092-.063-.18-.126-.268-.19l-.003-.002a11.158 11.158 0 0 1-.822-.652l-.015-.013v8.685c0 3.708 9.351 7.8 23.26 8.526a5.136 5.136 0 0 1-.662-3.763c-2.965-.179-5.793-.518-8.425-1.013a1.172 1.172 0 0 1 .433-2.303c2.824.531 5.888.875 9.113 1.03a5.155 5.155 0 0 1 7.858-.018c4.758-.25 9.169-.924 12.785-1.956a1.172 1.172 0 1 1 .643 2.254c-3.524 1.006-7.748 1.684-12.297 1.983a5.135 5.135 0 0 1-.656 3.786c13.909-.727 23.26-4.818 23.26-8.526zM30 19.622c9.682 0 17.62-1.606 22.47-3.768-1.02-.467-2.417-1.002-4.273-1.523C43.154 12.917 36.692 12.14 30 12.14c-6.692 0-13.155.778-18.198 2.192-1.856.52-3.252 1.057-4.273 1.523 4.85 2.161 12.789 3.768 22.47 3.768zm27.656-8.639c0-4.086-11.358-8.64-27.656-8.64S2.344 6.898 2.344 10.984a2.229 2.229 0 0 0 .032.376l.001.01a2.431 2.431 0 0 0 .093.367l.01.029a2.84 2.84 0 0 0 .086.22l.039.085c.027.056.055.113.086.169l.008.015c.488.88 1.409 1.65 2.322 2.25 1.214-.698 3.161-1.592 6.149-2.43C16.413 10.605 23.1 9.796 30 9.796c6.9 0 13.587.81 18.83 2.28 2.988.837 4.935 1.73 6.148 2.43.914-.601 1.835-1.371 2.323-2.251l.008-.015a3.2 3.2 0 0 0 .086-.17l.04-.085c.03-.072.06-.145.085-.22l.01-.029a2.612 2.612 0 0 0 .093-.365l.001-.011a2.297 2.297 0 0 0 .032-.376zM48.2 7.872a1.183 1.183 0 0 1-.521.975 1.244 1.244 0 0 1-.422.174 1.153 1.153 0 0 1-.88-.174A1.278 1.278 0 0 1 46.2 8.7a1.185 1.185 0 0 1-.32-1.058 1.185 1.185 0 0 1 .32-.6 1.189 1.189 0 0 1 1.058-.32 1.183 1.183 0 0 1 .6.32 1.183 1.183 0 0 1 .343.829zm-3.782-.643a1.172 1.172 0 0 1-1.368.935c-3.897-.733-8.343-1.12-12.857-1.12-6.233 0-12.235.732-16.9 2.063a1.17 1.17 0 0 1-1.448-.805 1.172 1.172 0 0 1 .805-1.448c4.869-1.39 11.099-2.155 17.544-2.155 4.656 0 9.252.402 13.289 1.162.636.12 1.055.732.935 1.368zM14.143 25.838c0 .153-.03.306-.089.447a1.156 1.156 0 0 1-.634.634 1.133 1.133 0 0 1-.449.09 1.149 1.149 0 0 1-.447-.09 1.124 1.124 0 0 1-.526-.431 1.184 1.184 0 0 1-.175-.879 1.22 1.22 0 0 1 .175-.422 1.124 1.124 0 0 1 .323-.324 1.154 1.154 0 0 1 .422-.174 1.158 1.158 0 0 1 .677.067 1.181 1.181 0 0 1 .38.253 1.127 1.127 0 0 1 .254.38 1.22 1.22 0 0 1 .09.449z"/></g></g></svg>