<svg xmlns="http://www.w3.org/2000/svg" width="32" height="60" viewBox="0 0 32 60"><g><g><path fill="#f1cdb3" d="M24.128 17.181c4.58 1.827 7.826 6.307 7.826 11.531v29.984c0 .72-.584 1.304-1.304 1.304H1.954c-.72 0-1.304-.584-1.304-1.304V28.712c0-5.224 3.246-9.704 7.826-11.53v-5.443c0-.72.584-1.304 1.304-1.304h.979v-9.13c0-.721.584-1.305 1.304-1.305h8.478c.72 0 1.305.584 1.305 1.304v9.13h.978c.72 0 1.304.585 1.304 1.305zm-10.76-6.746h5.869V2.609h-5.87zm-2.283 5.87h10.434v-3.262H11.085zm18.26 12.407c0-5.403-4.395-9.799-9.798-9.799h-6.49c-5.403 0-9.798 4.396-9.798 9.8V57.39h26.087zm-4.565-1.32c.72 0 1.305.583 1.305 1.304v5.433a1.304 1.304 0 1 1-2.609 0V30H9.128v21.522h14.348v-6.893a1.304 1.304 0 1 1 2.609 0v8.197c0 .72-.584 1.304-1.305 1.304H7.824c-.72 0-1.304-.584-1.304-1.304v-24.13c0-.72.583-1.305 1.304-1.305zm1.305 11.977v.13a1.304 1.304 0 1 1-2.609 0v-.13a1.304 1.304 0 1 1 2.609 0zm-7.182 5.695a3.917 3.917 0 0 1-3.913 3.913 3.917 3.917 0 0 1-3.913-3.913 3.917 3.917 0 0 1 3.913-3.913 3.917 3.917 0 0 1 3.913 3.913zm-2.609 0c0-.719-.585-1.304-1.304-1.304-.72 0-1.304.585-1.304 1.304 0 .72.585 1.305 1.304 1.305.72 0 1.304-.586 1.304-1.305zm1.636-5.167a3.917 3.917 0 0 1-3.913-3.913 3.917 3.917 0 0 1 3.913-3.913 3.917 3.917 0 0 1 3.913 3.913 3.917 3.917 0 0 1-3.913 3.913zm1.305-3.913a1.306 1.306 0 0 0-2.609 0c0 .72.585 1.305 1.304 1.305.72 0 1.305-.586 1.305-1.305z"/></g></g></svg>